<svg width="128" height="128" viewBox="0 0 128 128" fill="none" xmlns="http://www.w3.org/2000/svg">
  <rect width="128" height="128" rx="32" fill="white"/>
  <path d="M64 15C72.6236 15 79.6146 21.991 79.6146 30.6146V68.6307L92.0674 83.3134C94.7805 86.5129 92.5051 91.4101 88.3094 91.4101H39.6906C35.4949 91.4101 33.2195 86.5129 35.9326 83.3134L48.3854 68.6307V30.6146C48.3854 21.991 55.3764 15 64 15Z" fill="#050816"/>
  <path d="M59.0933 22.2231C59.0933 19.613 61.2093 17.4971 63.8193 17.4971H64.1807C66.7907 17.4971 68.9067 19.613 68.9067 22.2231V78.9083H59.0933V22.2231Z" fill="white"/>
  <path d="M52.6348 86.7942H75.3652L73.2374 98.6927C72.8247 101.001 70.8175 102.679 68.4725 102.679H59.5275C57.1825 102.679 55.1753 101.001 54.7626 98.6927L52.6348 86.7942Z" fill="#FFB000"/>
  <rect x="47.4531" y="107.385" width="33.0934" height="5.61582" rx="2.80791" fill="#050816"/>
  <rect x="61.1924" y="1" width="5.61582" height="14.0396" rx="2.80791" fill="#050816"/>
  <rect x="22.9688" y="20.7346" width="5.61582" height="14.0396" rx="2.80791" transform="rotate(-30 22.9688 20.7346)" fill="#FFB000"/>
  <rect width="5.61582" height="14.0396" rx="2.80791" transform="matrix(-0.866025 -0.5 -0.5 0.866025 105.031 20.7346)" fill="#FFB000"/>
  <rect x="14" y="61.1936" width="5.61582" height="14.0396" rx="2.80791" transform="rotate(-90 14 61.1936)" fill="#FFB000"/>
  <rect x="114" y="66.8093" width="5.61582" height="14.0396" rx="2.80791" transform="rotate(-90 114 66.8093)" fill="#FFB000"/>
</svg>
